<svg width="614" height="224" viewBox="0 0 614 224" fill="none" xmlns="http://www.w3.org/2000/svg">
<mask id="mask0_164_7" style="mask-type:alpha" maskUnits="userSpaceOnUse" x="0" y="32" width="159" height="160">
<rect y="32.5" width="159" height="159" rx="44.8462" fill="#D9D9D9"/>
</mask>
<g mask="url(#mask0_164_7)">
<path d="M159.042 32.5H0V191.542H159.042V32.5Z" fill="white"/>
<path d="M83.3251 56.5C60.5013 56.5 42 74.9828 42 97.784C42 98.2309 42.0077 98.6739 42.0231 99.1169V138.791C42.0231 138.791 42.0231 138.795 42.0231 138.798V142.832C42.0231 142.832 42.0231 142.832 42.027 142.828V152.801C42.027 152.878 42.0231 152.951 42.0231 153.028C42.0231 153.105 42.027 153.182 42.0308 153.26V153.444H42.0347C42.2545 161.106 48.536 167.251 56.2596 167.251C63.9833 167.251 70.3303 161.106 70.5501 153.444V138.798H82.3573C82.6773 138.806 83.0012 138.81 83.3213 138.81C106.145 138.81 124.646 120.585 124.646 97.784C124.646 74.9828 106.149 56.5 83.3251 56.5ZM83.3251 110.304C80.7994 110.304 74.3984 110.304 71.7416 110.304H70.5617V97.7879C70.5617 90.773 76.3033 85.0833 83.3251 85.0833C90.347 85.0833 96.0424 90.773 96.0424 97.7879C96.0424 104.803 90.347 110.308 83.3251 110.308V110.304Z" fill="#E72264"/>
<path opacity="0.15" d="M55.901 138.806H70.5308V153.448H70.4653C70.2455 161.11 63.964 167.255 56.2403 167.255C48.5167 167.255 42.2314 161.11 42.0116 153.448H42.0077V153.263C42.0077 153.186 42 153.109 42 153.032C42 152.955 42.0039 152.882 42.0039 152.805V151.773C42.4434 144.92 48.9177 138.806 55.8972 138.806H55.901Z" fill="#1D1D1B"/>
<g opacity="0.05">
<path opacity="0.5" d="M42.0229 121.194V138.799C42.0229 123.29 55.0679 110.524 70.5538 110.312V104.695C59.0435 105.905 48.852 112.095 42.0229 121.194Z" fill="black" fill-opacity="0.5"/>
<path d="M42.0464 152.047C45.4089 149.581 49.4885 148.129 53.8921 148.129H70.5579V138.799H56.279C48.7366 138.799 42.5708 144.643 42.0464 152.047Z" fill="black" fill-opacity="0.5"/>
</g>
<g opacity="0.05">
<path opacity="0.5" d="M70.5538 110.312V105.211C58.9471 106.348 48.7055 112.673 42.0229 121.961V138.799C42.0229 123.29 55.0679 110.524 70.5538 110.312Z" fill="black" fill-opacity="0.5"/>
<path d="M56.2787 138.799C48.9407 138.799 42.9022 144.334 42.1001 151.453C45.4587 148.834 49.6078 147.285 54.1078 147.285H70.5538V138.803H56.2749L56.2787 138.799Z" fill="black" fill-opacity="0.5"/>
</g>
<g opacity="0.05">
<path opacity="0.5" d="M70.5538 110.312V105.724C58.843 106.783 48.5358 113.263 42.0229 122.759V138.795C42.0229 123.286 55.0679 110.52 70.5538 110.308V110.312Z" fill="black" fill-opacity="0.5"/>
<path d="M56.2788 138.799C49.1451 138.799 43.2415 144.026 42.1772 150.856C45.5166 148.086 49.7351 146.434 54.3238 146.434H70.5538V138.799H56.2749H56.2788Z" fill="black" fill-opacity="0.5"/>
</g>
<g opacity="0.05">
<path opacity="0.5" d="M70.5538 110.312V106.24C58.7234 107.218 48.3468 113.875 42.0229 123.602V138.799C42.0229 123.29 55.0679 110.523 70.5538 110.312Z" fill="black" fill-opacity="0.5"/>
<path d="M56.2787 138.799C49.3494 138.799 43.5769 143.733 42.2812 150.275C45.5936 147.351 49.8699 145.586 54.5434 145.586H70.5576V138.799H56.2787Z" fill="black" fill-opacity="0.5"/>
</g>
<g opacity="0.05">
<path opacity="0.5" d="M70.5538 110.311V106.76C58.5846 107.646 48.1271 114.51 42.0229 124.491V138.799C42.0229 123.29 55.0679 110.523 70.5538 110.311Z" fill="black" fill-opacity="0.5"/>
<path d="M56.2789 138.799C49.5578 138.799 43.928 143.441 42.4126 149.685C45.6787 146.611 50.009 144.735 54.7596 144.735H70.554V138.795H56.2751L56.2789 138.799Z" fill="black" fill-opacity="0.5"/>
</g>
<g opacity="0.05">
<path opacity="0.5" d="M70.5538 110.311V107.28C58.4265 108.073 47.8687 115.173 42.0229 125.447V138.798C42.0229 123.29 55.0679 110.523 70.5538 110.311Z" fill="black" fill-opacity="0.5"/>
<path d="M56.279 138.799C49.77 138.799 44.2867 143.152 42.5708 149.096C45.779 145.871 50.1518 143.888 54.9795 143.888H70.5579V138.799H56.279Z" fill="black" fill-opacity="0.5"/>
</g>
<g opacity="0.05">
<path opacity="0.5" d="M70.5538 110.311V107.804C58.2414 108.493 47.5641 115.878 42.0229 126.483V138.798C42.0229 123.29 55.0679 110.523 70.5538 110.311Z" fill="black" fill-opacity="0.5"/>
<path d="M56.2789 138.799C49.9897 138.799 44.653 142.867 42.752 148.51C45.8869 145.14 50.3021 143.04 55.1915 143.04H70.554V138.799H56.2751H56.2789Z" fill="black" fill-opacity="0.5"/>
</g>
<g opacity="0.05">
<path opacity="0.5" d="M70.5538 110.312V108.332C58.0139 108.909 47.1939 116.641 42.0229 127.635V138.799C42.0229 123.29 55.0679 110.523 70.5538 110.312Z" fill="black" fill-opacity="0.5"/>
<path d="M56.2787 138.799C50.2055 138.799 45.0229 142.593 42.96 147.936C46.0101 144.415 50.4522 142.193 55.4111 142.193H70.5576V138.799H56.2787Z" fill="black" fill-opacity="0.5"/>
</g>
<g opacity="0.05">
<path opacity="0.5" d="M70.5538 110.312V108.871C57.7247 109.33 46.7196 117.496 42.0229 128.972V138.799C42.0229 123.29 55.0679 110.524 70.5538 110.312Z" fill="black" fill-opacity="0.5"/>
<path d="M56.2789 138.799C50.4254 138.799 45.3972 142.324 43.1992 147.362C46.1414 143.691 50.6144 141.345 55.6311 141.345H70.5578V138.799H56.2789Z" fill="black" fill-opacity="0.5"/>
</g>
</g>
<path d="M186.32 164V67.68H196.54V164H186.32ZM193.04 164V154.62H246.1V164H193.04ZM289.402 165.4C283.148 165.4 277.548 163.907 272.602 160.92C267.655 157.84 263.735 153.733 260.842 148.6C258.042 143.467 256.642 137.68 256.642 131.24C256.642 124.707 258.042 118.873 260.842 113.74C263.735 108.513 267.655 104.407 272.602 101.42C277.548 98.34 283.102 96.8 289.262 96.8C294.302 96.8 298.782 97.8267 302.702 99.88C306.715 101.84 309.935 104.64 312.362 108.28C314.882 111.827 316.422 115.98 316.982 120.74V141.32C316.422 146.08 314.882 150.28 312.362 153.92C309.935 157.56 306.715 160.407 302.702 162.46C298.782 164.42 294.348 165.4 289.402 165.4ZM290.942 156.02C297.755 156.02 303.215 153.733 307.322 149.16C311.522 144.587 313.622 138.567 313.622 131.1C313.622 126.153 312.642 121.813 310.682 118.08C308.815 114.253 306.155 111.313 302.702 109.26C299.342 107.113 295.375 106.04 290.802 106.04C286.135 106.04 281.982 107.113 278.342 109.26C274.795 111.407 271.948 114.393 269.802 118.22C267.748 121.953 266.722 126.247 266.722 131.1C266.722 135.953 267.748 140.247 269.802 143.98C271.948 147.713 274.842 150.653 278.482 152.8C282.122 154.947 286.275 156.02 290.942 156.02ZM313.062 164V146.36L315.022 130.12L313.062 114.3V98.2H322.862V164H313.062ZM367.516 164.28L338.676 98.2H349.456L372.696 153.36H368.636L393.136 98.2H404.056L373.116 164.28H367.516ZM349.596 191.72L367.656 154.34L373.116 164.28L360.376 191.72H349.596ZM445.422 165.4C439.075 165.4 433.288 163.86 428.062 160.78C422.928 157.7 418.822 153.547 415.742 148.32C412.755 143.093 411.262 137.26 411.262 130.82C411.262 124.473 412.755 118.733 415.742 113.6C418.822 108.467 422.928 104.407 428.062 101.42C433.288 98.34 439.075 96.8 445.422 96.8C451.862 96.8 457.648 98.2933 462.782 101.28C467.915 104.267 471.975 108.373 474.962 113.6C478.042 118.733 479.582 124.473 479.582 130.82C479.582 137.353 478.042 143.233 474.962 148.46C471.975 153.593 467.915 157.7 462.782 160.78C457.648 163.86 451.862 165.4 445.422 165.4ZM445.422 155.88C450.088 155.88 454.195 154.807 457.742 152.66C461.382 150.513 464.228 147.527 466.282 143.7C468.428 139.873 469.502 135.58 469.502 130.82C469.502 126.06 468.428 121.86 466.282 118.22C464.228 114.487 461.382 111.547 457.742 109.4C454.195 107.253 450.088 106.18 445.422 106.18C440.848 106.18 436.742 107.253 433.102 109.4C429.462 111.547 426.615 114.487 424.562 118.22C422.508 121.86 421.482 126.06 421.482 130.82C421.482 135.673 422.508 140.013 424.562 143.84C426.615 147.573 429.462 150.513 433.102 152.66C436.742 154.807 440.848 155.88 445.422 155.88ZM524.012 165.4C518.692 165.4 513.932 164.187 509.732 161.76C505.532 159.24 502.219 155.833 499.792 151.54C497.459 147.247 496.292 142.207 496.292 136.42V98.2H506.232V136C506.232 140.013 506.932 143.513 508.332 146.5C509.825 149.487 511.925 151.82 514.632 153.5C517.339 155.18 520.465 156.02 524.012 156.02C529.519 156.02 533.859 154.2 537.032 150.56C540.299 146.92 541.932 142.067 541.932 136V98.2H551.732V136.42C551.732 142.113 550.565 147.153 548.232 151.54C545.899 155.927 542.632 159.333 538.432 161.76C534.232 164.187 529.425 165.4 524.012 165.4ZM583.043 164V70.48H592.843V164H583.043ZM566.383 107.02V98.2H609.363V107.02H566.383Z" fill="white"/>
<path d="M186.32 164H181.82C181.82 166.485 183.835 168.5 186.32 168.5V164ZM186.32 67.68V63.18C183.835 63.18 181.82 65.1947 181.82 67.68H186.32ZM196.54 67.68H201.04C201.04 65.1947 199.025 63.18 196.54 63.18V67.68ZM196.54 164V168.5C199.025 168.5 201.04 166.485 201.04 164H196.54ZM193.04 164H188.54C188.54 166.485 190.555 168.5 193.04 168.5V164ZM193.04 154.62V150.12C190.555 150.12 188.54 152.135 188.54 154.62H193.04ZM246.1 154.62H250.6C250.6 152.135 248.585 150.12 246.1 150.12V154.62ZM246.1 164V168.5C248.585 168.5 250.6 166.485 250.6 164H246.1ZM186.32 164H190.82V67.68H186.32H181.82V164H186.32ZM186.32 67.68V72.18H196.54V67.68V63.18H186.32V67.68ZM196.54 67.68H192.04V164H196.54H201.04V67.68H196.54ZM196.54 164V159.5H186.32V164V168.5H196.54V164ZM193.04 164H197.54V154.62H193.04H188.54V164H193.04ZM193.04 154.62V159.12H246.1V154.62V150.12H193.04V154.62ZM246.1 154.62H241.6V164H246.1H250.6V154.62H246.1ZM246.1 164V159.5H193.04V164V168.5H246.1V164ZM272.602 160.92L270.223 164.74C270.241 164.751 270.258 164.762 270.276 164.772L272.602 160.92ZM260.842 148.6L256.891 150.755C256.901 150.773 256.911 150.791 256.921 150.81L260.842 148.6ZM260.842 113.74L256.905 111.561C256.9 111.569 256.896 111.577 256.891 111.585L260.842 113.74ZM272.602 101.42L274.927 105.272C274.945 105.262 274.963 105.251 274.98 105.24L272.602 101.42ZM302.702 99.88L300.614 103.866C300.651 103.886 300.689 103.905 300.727 103.924L302.702 99.88ZM312.362 108.28L308.617 110.776C308.642 110.813 308.667 110.85 308.693 110.886L312.362 108.28ZM316.982 120.74H321.482C321.482 120.564 321.471 120.389 321.451 120.214L316.982 120.74ZM316.982 141.32L321.451 141.846C321.471 141.671 321.482 141.496 321.482 141.32H316.982ZM312.362 153.92L308.662 151.359C308.647 151.38 308.632 151.402 308.617 151.424L312.362 153.92ZM302.702 162.46L304.714 166.485C304.726 166.479 304.739 166.472 304.751 166.466L302.702 162.46ZM307.322 149.16L304.007 146.116C303.996 146.129 303.985 146.141 303.973 146.153L307.322 149.16ZM310.682 118.08L306.637 120.053C306.657 120.093 306.677 120.132 306.697 120.172L310.682 118.08ZM302.702 109.26L300.279 113.052C300.319 113.078 300.36 113.103 300.402 113.128L302.702 109.26ZM278.342 109.26L276.056 105.384C276.041 105.393 276.026 105.401 276.011 105.41L278.342 109.26ZM269.802 118.22L265.877 116.018C265.871 116.029 265.865 116.04 265.859 116.051L269.802 118.22ZM269.802 143.98L265.859 146.149C265.872 146.174 265.886 146.198 265.9 146.223L269.802 143.98ZM313.062 164H308.562C308.562 166.485 310.576 168.5 313.062 168.5V164ZM313.062 146.36L308.594 145.821C308.572 146 308.562 146.18 308.562 146.36H313.062ZM315.022 130.12L319.489 130.659C319.533 130.296 319.532 129.929 319.487 129.567L315.022 130.12ZM313.062 114.3H308.562C308.562 114.485 308.573 114.67 308.596 114.853L313.062 114.3ZM313.062 98.2V93.7C310.576 93.7 308.562 95.7147 308.562 98.2H313.062ZM322.862 98.2H327.362C327.362 95.7147 325.347 93.7 322.862 93.7V98.2ZM322.862 164V168.5C325.347 168.5 327.362 166.485 327.362 164H322.862ZM289.402 165.4V160.9C283.898 160.9 279.115 159.596 274.927 157.068L272.602 160.92L270.276 164.772C275.982 168.217 282.398 169.9 289.402 169.9V165.4ZM272.602 160.92L274.98 157.1C270.682 154.424 267.289 150.874 264.762 146.39L260.842 148.6L256.921 150.81C260.181 156.593 264.628 161.256 270.223 164.74L272.602 160.92ZM260.842 148.6L264.792 146.445C262.388 142.038 261.142 137.005 261.142 131.24H256.642H252.142C252.142 138.355 253.695 144.895 256.891 150.755L260.842 148.6ZM256.642 131.24H261.142C261.142 125.37 262.393 120.292 264.792 115.895L260.842 113.74L256.891 111.585C253.69 117.454 252.142 124.044 252.142 131.24H256.642ZM260.842 113.74L264.779 115.919C267.304 111.357 270.678 107.838 274.927 105.272L272.602 101.42L270.276 97.5677C264.631 100.976 260.166 105.669 256.905 111.561L260.842 113.74ZM272.602 101.42L274.98 105.24C279.172 102.63 283.892 101.3 289.262 101.3V96.8V92.3C282.311 92.3 275.925 94.0497 270.223 97.6L272.602 101.42ZM289.262 96.8V101.3C293.676 101.3 297.422 102.195 300.614 103.866L302.702 99.88L304.79 95.8938C300.141 93.4586 294.927 92.3 289.262 92.3V96.8ZM302.702 99.88L300.727 103.924C304.039 105.541 306.643 107.814 308.617 110.776L312.362 108.28L316.106 105.784C313.227 101.466 309.39 98.1387 304.676 95.8364L302.702 99.88ZM312.362 108.28L308.693 110.886C310.733 113.757 312.031 117.178 312.512 121.266L316.982 120.74L321.451 120.214C320.812 114.782 319.03 109.897 316.03 105.674L312.362 108.28ZM316.982 120.74H312.482V141.32H316.982H321.482V120.74H316.982ZM316.982 141.32L312.512 140.794C312.031 144.885 310.728 148.373 308.662 151.359L312.362 153.92L316.061 156.481C319.035 152.187 320.812 147.275 321.451 141.846L316.982 141.32ZM312.362 153.92L308.617 151.424C306.631 154.404 304.002 156.74 300.652 158.454L302.702 162.46L304.751 166.466C309.427 164.074 313.239 160.716 316.106 156.416L312.362 153.92ZM302.702 162.46L300.689 158.435C297.47 160.045 293.74 160.9 289.402 160.9V165.4V169.9C294.956 169.9 300.093 168.795 304.714 166.485L302.702 162.46ZM290.942 156.02V160.52C298.878 160.52 305.612 157.8 310.67 152.167L307.322 149.16L303.973 146.153C300.818 149.667 296.632 151.52 290.942 151.52V156.02ZM307.322 149.16L310.636 152.204C315.747 146.638 318.122 139.453 318.122 131.1H313.622H309.122C309.122 137.68 307.296 142.535 304.007 146.116L307.322 149.16ZM313.622 131.1H318.122C318.122 125.551 317.019 120.47 314.666 115.988L310.682 118.08L306.697 120.172C308.264 123.157 309.122 126.756 309.122 131.1H313.622ZM310.682 118.08L314.726 116.107C312.499 111.542 309.254 107.921 305.001 105.392L302.702 109.26L300.402 113.128C303.055 114.706 305.131 116.965 306.637 120.053L310.682 118.08ZM302.702 109.26L305.124 105.468C300.939 102.794 296.104 101.54 290.802 101.54V106.04V110.54C294.646 110.54 297.744 111.433 300.279 113.052L302.702 109.26ZM290.802 106.04V101.54C285.417 101.54 280.459 102.787 276.056 105.384L278.342 109.26L280.627 113.136C283.504 111.44 286.853 110.54 290.802 110.54V106.04ZM278.342 109.26L276.011 105.41C271.761 107.983 268.381 111.555 265.877 116.018L269.802 118.22L273.726 120.422C275.516 117.232 277.829 114.83 280.672 113.11L278.342 109.26ZM269.802 118.22L265.859 116.051C263.392 120.537 262.222 125.595 262.222 131.1H266.722H271.222C271.222 126.898 272.105 123.37 273.745 120.389L269.802 118.22ZM266.722 131.1H262.222C262.222 136.605 263.392 141.663 265.859 146.149L269.802 143.98L273.745 141.811C272.105 138.83 271.222 135.302 271.222 131.1H266.722ZM269.802 143.98L265.9 146.223C268.427 150.618 271.872 154.126 276.196 156.676L278.482 152.8L280.767 148.924C277.811 147.18 275.469 144.809 273.703 141.737L269.802 143.98ZM278.482 152.8L276.196 156.676C280.599 159.273 285.557 160.52 290.942 160.52V156.02V151.52C286.993 151.52 283.644 150.62 280.767 148.924L278.482 152.8ZM313.062 164H317.562V146.36H313.062H308.562V164H313.062ZM313.062 146.36L317.529 146.899L319.489 130.659L315.022 130.12L310.554 129.581L308.594 145.821L313.062 146.36ZM315.022 130.12L319.487 129.567L317.527 113.747L313.062 114.3L308.596 114.853L310.556 130.673L315.022 130.12ZM313.062 114.3H317.562V98.2H313.062H308.562V114.3H313.062ZM313.062 98.2V102.7H322.862V98.2V93.7H313.062V98.2ZM322.862 98.2H318.362V164H322.862H327.362V98.2H322.862ZM322.862 164V159.5H313.062V164V168.5H322.862V164ZM367.516 164.28L363.392 166.08C364.108 167.72 365.727 168.78 367.516 168.78V164.28ZM338.676 98.2V93.7C337.158 93.7 335.743 94.4653 334.911 95.7353C334.08 97.0052 333.945 98.6088 334.552 100L338.676 98.2ZM349.456 98.2L353.603 96.4528C352.9 94.7846 351.266 93.7 349.456 93.7V98.2ZM372.696 153.36V157.86C374.204 157.86 375.611 157.105 376.445 155.849C377.279 154.593 377.428 153.002 376.843 151.613L372.696 153.36ZM368.636 153.36L364.524 151.533C363.905 152.925 364.033 154.536 364.863 155.813C365.693 157.09 367.113 157.86 368.636 157.86V153.36ZM393.136 98.2V93.7C391.357 93.7 389.746 94.7477 389.024 96.3733L393.136 98.2ZM404.056 98.2L408.131 100.108C408.784 98.7144 408.679 97.0838 407.853 95.7851C407.027 94.4865 405.595 93.7 404.056 93.7V98.2ZM373.116 164.28V168.78C374.862 168.78 376.451 167.77 377.191 166.188L373.116 164.28ZM349.596 191.72L345.544 189.762C344.87 191.157 344.961 192.8 345.784 194.112C346.607 195.424 348.047 196.22 349.596 196.22V191.72ZM367.656 154.34L371.6 152.173C370.789 150.697 369.222 149.798 367.539 149.842C365.855 149.886 364.337 150.866 363.604 152.382L367.656 154.34ZM373.116 164.28L377.198 166.175C377.801 164.876 377.75 163.368 377.06 162.113L373.116 164.28ZM360.376 191.72V196.22C362.128 196.22 363.72 195.204 364.458 193.615L360.376 191.72ZM367.516 164.28L371.64 162.48L342.8 96.4L338.676 98.2L334.552 100L363.392 166.08L367.516 164.28ZM338.676 98.2V102.7H349.456V98.2V93.7H338.676V98.2ZM349.456 98.2L345.309 99.9472L368.549 155.107L372.696 153.36L376.843 151.613L353.603 96.4528L349.456 98.2ZM372.696 153.36V148.86H368.636V153.36V157.86H372.696V153.36ZM368.636 153.36L372.749 155.187L397.249 100.027L393.136 98.2L389.024 96.3733L364.524 151.533L368.636 153.36ZM393.136 98.2V102.7H404.056V98.2V93.7H393.136V98.2ZM404.056 98.2L399.981 96.2918L369.041 162.372L373.116 164.28L377.191 166.188L408.131 100.108L404.056 98.2ZM373.116 164.28V159.78H367.516V164.28V168.78H373.116V164.28ZM349.596 191.72L353.648 193.678L371.708 156.298L367.656 154.34L363.604 152.382L345.544 189.762L349.596 191.72ZM367.656 154.34L363.712 156.507L369.172 166.447L373.116 164.28L377.06 162.113L371.6 152.173L367.656 154.34ZM373.116 164.28L369.035 162.385L356.295 189.825L360.376 191.72L364.458 193.615L377.198 166.175L373.116 164.28ZM360.376 191.72V187.22H349.596V191.72V196.22H360.376V191.72ZM428.062 160.78L425.746 164.639C425.757 164.645 425.767 164.651 425.777 164.657L428.062 160.78ZM415.742 148.32L411.835 150.553C411.845 150.57 411.855 150.587 411.865 150.605L415.742 148.32ZM415.742 113.6L411.883 111.285C411.873 111.302 411.862 111.32 411.852 111.337L415.742 113.6ZM428.062 101.42L430.325 105.31C430.332 105.305 430.339 105.301 430.346 105.297L428.062 101.42ZM474.962 113.6L471.055 115.833C471.07 115.86 471.087 115.888 471.103 115.915L474.962 113.6ZM474.962 148.46L471.085 146.175C471.081 146.183 471.076 146.19 471.072 146.197L474.962 148.46ZM462.782 160.78L460.466 156.921L460.466 156.921L462.782 160.78ZM457.742 152.66L455.456 148.784C455.441 148.793 455.426 148.801 455.412 148.81L457.742 152.66ZM466.282 143.7L462.357 141.498C462.343 141.523 462.33 141.548 462.316 141.572L466.282 143.7ZM466.282 118.22L462.339 120.389C462.36 120.428 462.383 120.467 462.406 120.506L466.282 118.22ZM457.742 109.4L455.412 113.25C455.426 113.259 455.441 113.267 455.456 113.276L457.742 109.4ZM424.562 118.22L428.481 120.431C428.489 120.417 428.497 120.403 428.505 120.389L424.562 118.22ZM424.562 143.84L420.596 145.968C420.604 145.981 420.611 145.995 420.619 146.009L424.562 143.84ZM433.102 152.66L430.816 156.536L430.816 156.536L433.102 152.66ZM445.422 165.4V160.9C439.84 160.9 434.848 159.556 430.346 156.903L428.062 160.78L425.777 164.657C431.729 168.164 438.31 169.9 445.422 169.9V165.4ZM428.062 160.78L430.377 156.921C425.896 154.233 422.323 150.624 419.619 146.035L415.742 148.32L411.865 150.605C415.321 156.469 419.96 161.167 425.746 164.639L428.062 160.78ZM415.742 148.32L419.649 146.087C417.078 141.588 415.762 136.533 415.762 130.82H411.262H406.762C406.762 137.987 408.432 144.599 411.835 150.553L415.742 148.32ZM411.262 130.82H415.762C415.762 125.212 417.072 120.262 419.631 115.863L415.742 113.6L411.852 111.337C408.438 117.205 406.762 123.735 406.762 130.82H411.262ZM415.742 113.6L419.6 115.915C422.293 111.427 425.853 107.911 430.325 105.31L428.062 101.42L425.799 97.5304C420.004 100.902 415.35 105.506 411.883 111.285L415.742 113.6ZM428.062 101.42L430.346 105.297C434.848 102.644 439.84 101.3 445.422 101.3V96.8V92.3C438.31 92.3 431.729 94.0359 425.777 97.5431L428.062 101.42ZM445.422 96.8V101.3C451.136 101.3 456.13 102.616 460.519 105.17L462.782 101.28L465.045 97.3904C459.167 93.9705 452.588 92.3 445.422 92.3V96.8ZM462.782 101.28L460.519 105.17C464.958 107.752 468.455 111.283 471.055 115.833L474.962 113.6L478.869 111.367C475.495 105.463 470.872 100.781 465.045 97.3904L462.782 101.28ZM474.962 113.6L471.103 115.915C473.738 120.307 475.082 125.238 475.082 130.82H479.582H484.082C484.082 123.709 482.346 117.16 478.82 111.285L474.962 113.6ZM479.582 130.82H475.082C475.082 136.614 473.726 141.694 471.085 146.175L474.962 148.46L478.839 150.745C482.358 144.773 484.082 138.093 484.082 130.82H479.582ZM474.962 148.46L471.072 146.197C468.47 150.669 464.954 154.229 460.466 156.921L462.782 160.78L465.097 164.639C470.876 161.171 475.48 156.518 478.851 150.723L474.962 148.46ZM462.782 160.78L460.466 156.921C456.086 159.55 451.11 160.9 445.422 160.9V165.4V169.9C452.613 169.9 459.211 168.17 465.097 164.639L462.782 160.78ZM445.422 155.88V160.38C450.804 160.38 455.737 159.133 460.072 156.51L457.742 152.66L455.412 148.81C452.653 150.48 449.373 151.38 445.422 151.38V155.88ZM457.742 152.66L460.028 156.536C464.397 153.959 467.816 150.359 470.247 145.828L466.282 143.7L462.316 141.572C460.641 144.695 458.366 147.067 455.456 148.784L457.742 152.66ZM466.282 143.7L470.206 145.902C472.762 141.346 474.002 136.284 474.002 130.82H469.502H465.002C465.002 134.876 464.095 138.401 462.357 141.498L466.282 143.7ZM469.502 130.82H474.002C474.002 125.36 472.763 120.351 470.158 115.934L466.282 118.22L462.406 120.506C464.094 123.369 465.002 126.76 465.002 130.82H469.502ZM466.282 118.22L470.225 116.051C467.786 111.617 464.369 108.084 460.028 105.524L457.742 109.4L455.456 113.276C458.394 115.009 460.671 117.357 462.339 120.389L466.282 118.22ZM457.742 109.4L460.072 105.55C455.737 102.927 450.804 101.68 445.422 101.68V106.18V110.68C449.373 110.68 452.653 111.58 455.412 113.25L457.742 109.4ZM445.422 106.18V101.68C440.113 101.68 435.205 102.935 430.816 105.524L433.102 109.4L435.388 113.276C438.278 111.571 441.584 110.68 445.422 110.68V106.18ZM433.102 109.4L430.816 105.524C426.474 108.084 423.058 111.617 420.619 116.051L424.562 118.22L428.505 120.389C430.172 117.357 432.449 115.009 435.388 113.276L433.102 109.4ZM424.562 118.22L420.642 116.009C418.158 120.413 416.982 125.395 416.982 130.82H421.482H425.982C425.982 126.725 426.859 123.307 428.481 120.431L424.562 118.22ZM421.482 130.82H416.982C416.982 136.327 418.152 141.413 420.596 145.968L424.562 143.84L428.527 141.712C426.864 138.614 425.982 135.02 425.982 130.82H421.482ZM424.562 143.84L420.619 146.009C423.058 150.443 426.474 153.976 430.816 156.536L433.102 152.66L435.388 148.784C432.449 147.051 430.172 144.703 428.505 141.671L424.562 143.84ZM433.102 152.66L430.816 156.536C435.205 159.125 440.113 160.38 445.422 160.38V155.88V151.38C441.584 151.38 438.278 150.489 435.388 148.784L433.102 152.66ZM509.732 161.76L507.417 165.619C507.438 165.631 507.459 165.644 507.481 165.656L509.732 161.76ZM499.792 151.54L495.838 153.689C495.85 153.711 495.862 153.733 495.875 153.754L499.792 151.54ZM496.292 98.2V93.7C493.807 93.7 491.792 95.7147 491.792 98.2H496.292ZM506.232 98.2H510.732C510.732 95.7147 508.717 93.7 506.232 93.7V98.2ZM508.332 146.5L504.257 148.41C504.274 148.444 504.29 148.479 504.307 148.512L508.332 146.5ZM537.032 150.56L533.683 147.554C533.669 147.57 533.654 147.587 533.64 147.603L537.032 150.56ZM541.932 98.2V93.7C539.447 93.7 537.432 95.7147 537.432 98.2H541.932ZM551.732 98.2H556.232C556.232 95.7147 554.217 93.7 551.732 93.7V98.2ZM548.232 151.54L544.259 149.427L544.259 149.427L548.232 151.54ZM538.432 161.76L536.181 157.864L536.181 157.864L538.432 161.76ZM524.012 165.4V160.9C519.404 160.9 515.434 159.857 511.983 157.864L509.732 161.76L507.481 165.656C512.43 168.516 517.98 169.9 524.012 169.9V165.4ZM509.732 161.76L512.047 157.901C508.519 155.785 505.756 152.946 503.71 149.326L499.792 151.54L495.875 153.754C498.681 158.72 502.545 162.695 507.417 165.619L509.732 161.76ZM499.792 151.54L503.746 149.391C501.832 145.869 500.792 141.594 500.792 136.42H496.292H491.792C491.792 142.819 493.086 148.624 495.838 153.689L499.792 151.54ZM496.292 136.42H500.792V98.2H496.292H491.792V136.42H496.292ZM496.292 98.2V102.7H506.232V98.2V93.7H496.292V98.2ZM506.232 98.2H501.732V136H506.232H510.732V98.2H506.232ZM506.232 136H501.732C501.732 140.533 502.523 144.71 504.257 148.41L508.332 146.5L512.407 144.59C511.341 142.316 510.732 139.494 510.732 136H506.232ZM508.332 146.5L504.307 148.512C506.154 152.206 508.81 155.183 512.259 157.323L514.632 153.5L517.005 149.677C515.041 148.457 513.497 146.767 512.357 144.488L508.332 146.5ZM514.632 153.5L512.259 157.323C515.757 159.495 519.725 160.52 524.012 160.52V156.02V151.52C521.206 151.52 518.92 150.865 517.005 149.677L514.632 153.5ZM524.012 156.02V160.52C530.616 160.52 536.271 158.281 540.424 153.517L537.032 150.56L533.64 147.603C531.446 150.119 528.421 151.52 524.012 151.52V156.02ZM537.032 150.56L540.381 153.566C544.556 148.914 546.432 142.898 546.432 136H541.932H537.432C537.432 141.235 536.042 144.926 533.683 147.554L537.032 150.56ZM541.932 136H546.432V98.2H541.932H537.432V136H541.932ZM541.932 98.2V102.7H551.732V98.2V93.7H541.932V98.2ZM551.732 98.2H547.232V136.42H551.732H556.232V98.2H551.732ZM551.732 136.42H547.232C547.232 141.485 546.199 145.78 544.259 149.427L548.232 151.54L552.205 153.653C554.932 148.527 556.232 142.742 556.232 136.42H551.732ZM548.232 151.54L544.259 149.427C542.311 153.089 539.633 155.869 536.181 157.864L538.432 161.76L540.683 165.656C545.631 162.798 549.486 158.765 552.205 153.653L548.232 151.54ZM538.432 161.76L536.181 157.864C532.742 159.85 528.729 160.9 524.012 160.9V165.4V169.9C530.122 169.9 535.722 168.523 540.683 165.656L538.432 161.76ZM583.043 164H578.543C578.543 166.485 580.558 168.5 583.043 168.5V164ZM583.043 70.48V65.98C580.558 65.98 578.543 67.9947 578.543 70.48H583.043ZM592.843 70.48H597.343C597.343 67.9947 595.328 65.98 592.843 65.98V70.48ZM592.843 164V168.5C595.328 168.5 597.343 166.485 597.343 164H592.843ZM566.383 107.02H561.883C561.883 109.505 563.898 111.52 566.383 111.52V107.02ZM566.383 98.2V93.7C563.898 93.7 561.883 95.7147 561.883 98.2H566.383ZM609.363 98.2H613.863C613.863 95.7147 611.848 93.7 609.363 93.7V98.2ZM609.363 107.02V111.52C611.848 111.52 613.863 109.505 613.863 107.02H609.363ZM583.043 164H587.543V70.48H583.043H578.543V164H583.043ZM583.043 70.48V74.98H592.843V70.48V65.98H583.043V70.48ZM592.843 70.48H588.343V164H592.843H597.343V70.48H592.843ZM592.843 164V159.5H583.043V164V168.5H592.843V164ZM566.383 107.02H570.883V98.2H566.383H561.883V107.02H566.383ZM566.383 98.2V102.7H609.363V98.2V93.7H566.383V98.2ZM609.363 98.2H604.863V107.02H609.363H613.863V98.2H609.363ZM609.363 107.02V102.52H566.383V107.02V111.52H609.363V107.02Z" fill="white"/>
</svg>
